<svg xmlns="http://www.w3.org/2000/svg" viewBox="0 0 32 32" width="32" height="32">
  <defs>
    <linearGradient id="fg" x1="0%" y1="0%" x2="100%" y2="100%">
      <stop offset="0%" style="stop-color:#7c3aed"/>
      <stop offset="100%" style="stop-color:#00d4ff"/>
    </linearGradient>
  </defs>
  <circle cx="16" cy="16" r="15" fill="#080e17" stroke="#1e3050" stroke-width="1"/>
  <g transform="translate(16,14)">
    <path d="M-1,-9 C-8,-9 -11,-5 -11,1 C-11,4 -9,7 -6,8 C-5,9 -3,10 -1,10 L-1,-9 Z" fill="url(#fg)" opacity="0.9"/>
    <path d="M1,-9 C8,-9 11,-5 11,1 C11,4 9,7 6,8 C5,9 3,10 1,10 L1,-9 Z" fill="url(#fg)" opacity="0.9"/>
    <line x1="0" y1="-9" x2="0" y2="10" stroke="#080e17" stroke-width="1"/>
  </g>
  <rect x="12" y="25" width="8" height="1.5" rx="0.5" fill="#00d4ff" opacity="0.8"/>
</svg>
